<svg width="199" height="47" viewBox="0 0 199 47" fill="none" xmlns="http://www.w3.org/2000/svg">
<path d="M185.173 15.5389C178.715 13.7651 172.674 12.297 166.841 11.0737C152.78 8.25996 139.865 6.91427 127.261 6.97543C127.053 6.97543 126.845 6.97543 126.532 6.97543C125.907 6.97543 125.282 6.97543 124.97 7.0366C124.345 7.22011 123.824 7.64828 123.72 7.95412C123.72 8.07646 124.345 8.44347 124.762 8.5658C125.282 8.68814 126.012 8.74931 126.741 8.74931C126.949 8.74931 127.157 8.74931 127.366 8.74931C135.386 9.05515 143.927 9.48332 152.572 10.7067C164.238 12.4194 173.508 14.2544 181.736 16.7011C185.173 17.6798 188.298 18.842 190.798 20.1265C195.589 22.5121 196.526 25.9375 193.402 29.1794C192.048 30.5863 190.277 31.8096 188.298 32.7271C185.798 33.8893 182.882 34.9904 179.445 35.969C172.258 38.1099 164.446 39.3333 157.884 40.2508C137.677 43.0645 114.971 44.5937 88.3063 44.9607C68.308 45.0219 53.7259 44.2879 39.7687 42.6364C33.2068 41.8412 24.6658 40.5566 17.0623 37.8653C13.6251 36.6419 10.7086 35.2962 8.31301 33.8282C3.10512 30.7086 2.48017 26.9162 6.33401 23.0626C7.47975 21.9616 8.8338 20.8606 10.7086 19.7595C14.4583 17.374 19.1454 15.2943 25.3949 13.1534C35.1858 9.85033 45.914 7.40361 58.413 5.69091C79.4529 2.69368 101.326 1.59265 123.512 2.38784C137.677 2.93835 149.343 3.7947 160.28 5.1404C169.862 6.30259 180.799 7.64828 190.798 10.3397C191.527 10.5232 192.256 10.5843 192.673 10.462C192.881 10.4008 193.089 10.2785 193.193 10.1562C193.506 9.72799 193.506 9.29982 191.944 8.87164L191.006 8.62697C189.444 8.19879 187.881 7.77062 186.215 7.40361C172.674 4.40638 157.571 2.44901 138.719 1.22565C128.615 0.491631 118.825 0.185791 109.346 0.185791C100.18 0.185791 91.2228 0.491631 82.3693 1.10331C65.9124 2.2655 51.9552 4.22288 39.5604 7.0366C27.2698 9.85033 18.1039 13.0311 10.6045 17.007C6.8548 18.9644 4.35501 20.8606 2.68848 22.8179C-0.644572 26.7939 -0.123782 30.5863 4.35501 34.134C6.8548 36.0914 10.1879 37.8041 14.9791 39.4556C20.812 41.4742 27.3739 43.0034 35.1858 44.0432C50.7053 46.1841 67.9955 47.1016 89.5562 46.9181C104.763 46.7958 120.179 46.0618 135.282 44.8384C150.593 43.5539 162.154 42.0247 172.674 39.8226C177.778 38.7828 184.444 37.1924 190.069 34.501C193.193 33.033 195.381 31.3815 196.839 29.5464C199.86 25.6928 198.61 21.9004 193.61 19.1479C191.006 17.5575 188.09 16.3341 185.173 15.5389Z" fill="#9E9E9E" fill-opacity="0.5"/>
</svg>
